<svg width="22" height="18" viewBox="0 0 22 18" fill="none" xmlns="http://www.w3.org/2000/svg">
<path d="M20.7501 0.859379C19.7501 1.34938 18.7701 1.54838 17.7501 1.84938C16.6291 0.584379 14.9671 0.514379 13.3701 1.11238C11.7731 1.71038 10.7271 3.17238 10.7501 4.84938V5.84938C7.50512 5.93238 4.61512 4.45438 2.75012 1.84938C2.75012 1.84938 -1.43188 9.28238 6.75012 12.8494C4.87812 14.0964 3.01112 14.9374 0.750122 14.8494C4.05812 16.6524 7.66312 17.2724 10.7841 16.3664C14.3641 15.3264 17.3061 12.6434 18.4351 8.62438C18.7719 7.40205 18.9391 6.13924 18.9321 4.87138C18.9301 4.62238 20.4421 2.09938 20.7501 0.858378V0.859379Z" stroke="#0098FF" stroke-width="1.5" stroke-linecap="round" stroke-linejoin="round"/>
</svg>
